PathFileType	4	(X/Y/Z)	Patient4_TMGait_0pt7_02_left_03.trc.trc
DataRate	CameraRate	NumFrames	NumMarkers	Units	OrigDataRate	OrigDataStartFrame	OrigNumFrames
86.419753086420	86.419753086420	5	33	mm	86.419753086420	53	       141
Frame#	Time	Sacral			L.Shoulder			Chest			R.Shoulder			Neck			R.ASIS			L.ASIS			R.Thigh.Superior			R.Thigh.Lateral			R.Thigh.Inferior			R.Patella			L.Thigh.Superior			L.Thigh.Lateral			L.Thigh.Inferior			L.Patella			L.Shank.Superior			L.Shank.Lateral			L.Shank.Inferior			R.Shank.Superior			R.Shank.Lateral			R.Shank.Inferior			R.Heel			R.Midfoot.Superior			R.Midfoot.Lateral			R.Toe			L.Heel			L.Midfoot.Lateral			L.Midfoot.Superior			L.Toe			L.Elbow			L.Wrist			R.Elbow			R.Wrist			
		X1	Y1	Z1	X2	Y2	Z2	X3	Y3	Z3	X4	Y4	Z4	X5	Y5	Z5	X6	Y6	Z6	X7	Y7	Z7	X8	Y8	Z8	X9	Y9	Z9	X10	Y10	Z10	X11	Y11	Z11	X12	Y12	Z12	X13	Y13	Z13	X14	Y14	Z14	X15	Y15	Z15	X16	Y16	Z16	X17	Y17	Z17	X18	Y18	Z18	X19	Y19	Z19	X20	Y20	Z20	X21	Y21	Z21	X22	Y22	Z22	X23	Y23	Z23	X24	Y24	Z24	X25	Y25	Z25	X26	Y26	Z26	X27	Y27	Z27	X28	Y28	Z28	X29	Y29	Z29	X30	Y30	Z30	X31	Y31	Z31	X32	Y32	Z32	X33	Y33	Z33	

53	3.611714285714	768.871422320916	1018.183628943927	443.418316541039	968.436411379099	1424.903665386906	235.187777489271	1075.388730151041	1355.408556092319	395.508324120783	1004.512059100485	1448.633987136935	567.086831567612	981.900251829855	1493.543522976263	385.563363983394	995.453611825011	941.941075141778	554.380916355625	978.038943085329	963.980910517459	281.449742738251	1077.563495193089	781.386910331270	532.356300184983	1039.662705576892	660.734638942472	611.419139571963	1135.015351137081	623.765398300141	537.423129740841	1155.563138747935	508.622079151372	561.404912573528	1017.104153923487	753.691203575103	298.879403719969	919.663120042158	642.244633918850	248.516962668057	1007.504457507937	561.377927400060	302.664219544424	1006.514959108942	493.208526298509	311.831301140652	980.928372038680	422.436691693719	306.381353680757	888.899066733317	305.708759638863	264.323143011538	950.918283440587	196.971993165194	332.621344261923	1075.966193207540	434.847815260201	563.475789425410	949.098058510840	401.065916420678	615.829617190628	932.992029405147	293.295700328517	565.158472820950	730.808475172417	236.703309947703	523.816505112912	896.830199751366	179.088964435322	576.978384442680	784.792029120258	178.187624116642	601.816698468727	958.023129317876	65.885768828201	607.311950904363	830.762428261963	38.274557716635	382.342201867411	905.556438587838	34.142248194074	301.680559270575	986.951969048986	97.788953078438	327.139259187106	1116.683881456356	48.528349419370	303.763022939910	967.526641456647	1076.763536476182	112.749845371397	1106.255599157002	854.145523398232	104.953098596399	940.514136667328	1117.323212384039	706.822370292348	1115.192022363143	934.601001651671	652.392049397494	
54	3.623285714286	767.719178581509	1018.532948230123	442.551770026660	968.836804472557	1424.849043634173	234.706226593083	1074.756935803847	1355.460829590784	395.692264888818	1002.975143889219	1449.033157399822	566.718686394182	981.494949126710	1493.666964255908	384.912674246331	994.188304552019	942.400986918645	554.372467462710	976.921524218020	963.923109267408	281.025492631374	1078.399542339080	784.962358985488	531.895518521646	1043.211350209393	663.746317761849	611.279346259528	1139.211589681351	628.597933204035	537.228920364390	1162.493362476547	514.190497529448	561.277529777187	1013.996386986112	752.854239896785	299.211257688397	915.206044378894	642.518076606753	248.509637047211	1001.552106873993	560.540163041430	303.056710596577	999.612995757728	492.642218357062	312.390282729838	973.984170255208	422.252380754218	306.676570286167	881.615178291426	305.868282101609	264.382125636471	943.158749467535	196.889169193080	332.741172585987	1085.248712095582	438.240300382387	563.583911936210	960.031260337962	400.031211535323	616.745261322235	947.262579730054	291.741849311751	565.997803371477	746.885795888972	228.556789431199	526.107141981902	915.168477577679	176.106997615736	577.999852429761	803.274561429258	171.495742069106	603.497651012525	979.977378895367	64.672577353491	607.301829226412	822.567290810056	38.262671383727	382.353146709309	897.419838786587	34.156105254592	301.722570642098	978.838151190141	97.725115085056	327.234080581826	1108.554786789320	48.422100312258	303.802774971172	976.277389580064	1078.074772367535	110.050396453940	1124.671580248559	861.661236928651	102.515021386972	931.976998693988	1119.191697792594	707.339713507231	1092.025410765380	920.309759830414	662.816099050874	
55	3.634857142857	766.680642397013	1018.776140518947	441.794976182510	969.346442067351	1424.793349943572	234.410790557527	1074.216689703393	1355.431971162102	396.019241707864	1001.549023185932	1449.260045882694	566.531235136035	981.139467389113	1493.708812170253	384.489000428678	993.024680590345	942.734668758002	554.445929329624	975.607603551051	963.462797679927	280.596304800886	1079.013251378780	788.133846185925	531.498675221359	1046.333507652919	666.428264872584	611.128693024621	1142.766098903967	632.909697872869	536.938183215250	1168.629092231530	519.456625971890	561.068755026688	1010.963746356814	751.963515533825	299.744145881096	910.891058681440	642.750394949511	248.504099066973	995.647609538904	559.691110368459	303.510252701329	992.754751757420	492.058620427741	312.975979878669	967.096411549056	422.046510016085	306.998591267117	874.422512661104	306.003421013429	264.403359777922	935.422937364560	196.787584537831	332.884586201771	1094.059366646620	441.294823626951	563.690655059296	970.899856918772	398.209990481632	617.800937624660	961.907585407290	289.443920344172	567.047963027582	763.817715867916	218.983693267647	528.826069108124	934.406183566821	172.236673081245	579.254507826725	822.808108208570	163.652331216420	605.552299844679	1003.178671954864	62.887558775148	607.598994967307	814.375119137831	38.251125715488	382.367468027366	889.282648007758	34.165550450626	301.770939151213	970.724130481668	97.651825254637	327.345626192671	1100.428086414467	48.302797100125	303.848256937751	984.390981607601	1079.572841691488	107.633522695336	1142.483341542111	870.003597677335	100.636717134922	923.886382352326	1120.970586547042	708.040462546234	1067.713472977659	907.494939181779	673.648399745418	
56	3.646428571429	765.759854087501	1018.901694804155	441.151157760709	969.967579350858	1424.717771851549	234.304857144633	1073.777517464293	1355.308352592442	396.498186473102	1000.239874551690	1449.295188780195	566.536946625258	980.845024764055	1493.655502393334	384.301151365785	991.962548418000	942.914774312769	554.590055340123	974.173969797210	962.671403205571	280.192924751460	1079.401636083594	790.835185392154	531.138752987525	1049.010395729130	668.716342083496	610.970282552438	1145.648373330894	636.603739020152	536.542763904716	1173.919269628139	524.324106028097	560.780086126203	1008.051176263234	751.016708114329	300.424917988812	906.708551762554	642.937397231120	248.491471240870	989.806454723695	558.828874167892	303.982940961662	985.966015029673	491.457509285386	313.553598368517	960.278865575252	421.815057487604	307.331673942685	867.327601843046	306.112540786498	264.378792031678	927.716165333472	196.665943781363	333.047564150472	1102.336501814224	443.974693932541	563.798169736119	981.678770710767	395.655340377942	618.968579810255	976.883065737450	286.509073526942	568.285701629003	781.650558215355	208.196274104131	531.878332558463	954.480373628298	167.662537536962	580.729545295012	843.363157681293	154.888461070570	607.912105536758	1027.478844440215	60.748593160261	608.220265019857	806.189679109615	38.242776267680	382.380462075400	881.143339520368	34.170938010817	301.822598733280	962.609636233736	97.568982195429	327.469975577856	1092.302347444298	48.170717538374	303.895205001578	991.797315001755	1081.181467051417	105.498869629067	1159.600514756746	879.164156233205	99.318944453233	916.174027285019	1122.658317085170	708.898520083980	1042.517214400328	896.369776705768	684.653134264678	
57	3.658000000000	764.964396747347	1018.903391853714	440.621016409975	970.695887486217	1424.605525761092	234.392963617044	1073.447581676895	1355.079928291886	397.135377947173	999.058596227270	1449.126360372813	566.745437845492	980.624591190525	1493.496573160921	384.356001156354	990.999988769778	942.921911215322	554.793630200180	972.793772605268	961.713266089999	279.869062075991	1079.557811054748	793.008741953790	530.796764201132	1051.210916253619	670.551916368829	610.810492824246	1147.828780254554	639.594451886235	536.047760587898	1178.318725248508	528.705646583810	560.420945335392	1005.306564117766	750.007883147941	301.198556535370	902.646496411373	643.076262286863	248.471876901398	984.041300607047	557.950884383939	304.446431952540	979.270156235274	490.839206162605	314.101928642779	953.541181091880	421.556576885137	307.669377587391	860.335125258978	306.195792282829	264.306869853375	920.043794409225	196.524655939866	333.230366378113	1110.021058698691	446.254059780722	563.912536642475	992.342482644303	392.431903692132	620.225382877408	992.143179862049	283.059476497524	569.683241109149	800.433250025055	196.416851632636	535.157817169788	975.332805923066	162.595661827451	582.407982142493	864.914580269285	145.443157221631	610.499124380031	1052.738205422266	58.503370764297	609.162212352749	798.014115627288	38.240562930157	382.388295548387	873.000457221240	34.174054869967	301.875340478951	954.494714106694	97.476380295848	327.604571694550	1084.175853961870	48.025359936406	303.939981328354	998.460758045974	1082.828426906657	103.645324115158	1175.936198054483	889.130117849396	98.560954457546	908.767721090120	1124.271891027618	709.886751917409	1016.765919405279	887.113796802364	695.564853665953	
